<svg xmlns="http://www.w3.org/2000/svg" xmlns:xlink="http://www.w3.org/1999/xlink" version="1.1" id="Livello_1" x="0px" y="0px" width="100px" height="100px" viewBox="0 0 100 100" enable-background="new 0 0 100 100" xml:space="preserve">
<g>
	<circle cx="38.835" cy="27.008" r="3.293"/>
	<circle cx="24.193" cy="42.191" r="1.941"/>
	<path d="M57.917,68.199c2.673-1.836,6.289-4.352,11.383-7.914c0.394-0.283,1.147-0.727,2.29-1.348   c1.228-0.651,2.554-0.98,3.952-0.98h24.573V36.168H73.046c-2.075,0-4.407,0.297-6.929,0.884c-2.5,0.582-4.659,1.497-6.416,2.723   l-25.55,18.675c-1.127,0.878-1.684,1.918-1.684,3.168c0,0.652,0.149,1.387,0.442,2.186c0.31,0.838,0.707,1.574,1.213,2.25   c0.517,0.689,1.071,1.226,1.692,1.641c0.582,0.385,1.199,0.574,1.883,0.574c0.767,0,1.481-0.27,2.186-0.82l0.071-0.05l12.329-7.465   h4.137l-15.342,9.259c-1.041,0.721-2.244,1.084-3.575,1.084c-1.786,0-3.372-0.836-4.713-2.486   c-1.135-1.399-1.855-2.896-2.143-4.458H7.509c-2.567,0-4.501,0.636-5.747,1.89c-1.262,1.271-1.876,2.566-1.876,3.961   c0,1.396,0.607,2.642,1.857,3.805c1.245,1.171,3.184,1.764,5.766,1.764h35.669c1.269,0,2.418-0.127,3.514-0.39   c1.104-0.265,2.543-0.868,4.278-1.796C52.759,71.607,55.097,70.14,57.917,68.199z"/>
	<g>
		<circle cx="10.541" cy="27.441" r="3.252"/>
		<path d="M5.884,45.571v-9.716h0.815L6.696,61.931c0.266-0.015,0.535-0.022,0.813-0.022h2.833l0.002-14.98h0.812l-0.005,14.98    h3.646l0.007-26.054h0.8v9.717c0,1.956,2.55,1.956,2.544,0v-9.924c0-2.16-1.27-4.276-3.796-4.276l-7.289-0.004    c-2.302,0-3.745,1.878-3.745,4.22v9.983C3.319,47.512,5.884,47.512,5.884,45.571z"/>
	</g>
	<path d="M21.413,53.016v-5.801H21.9l-0.002,14.693h2.177l0.001-8.082h0.485l-0.002,8.082h2.176l0.004-14.693h0.479v5.801   c0,1.167,1.522,1.167,1.519,0V47.09c0-1.289-0.757-2.552-2.266-2.552l-4.352-0.002c-1.375,0-2.237,1.121-2.237,2.52v5.96   C19.881,54.174,21.413,54.174,21.413,53.016z"/>
	<g>
		<path d="M32.252,44.118l2.54-8.551h0.684l-4.368,15.156h4.069v5.214l3.042-2.225v-3.068h1.236v2.166l6.345-4.638l-3.662-12.605    h0.741l2.54,8.52c0.605,1.945,3.145,1.119,2.58-0.877l-2.823-9.28c-0.347-1.042-1.279-2.937-3.577-2.937h-5.558    c-2.32,0-3.246,1.878-3.547,2.937l-2.82,9.289C29.086,45.216,31.648,45.981,32.252,44.118z"/>
	</g>
</g>
</svg>